<svg xmlns="http://www.w3.org/2000/svg" width="900.000000pt" height="900.000000pt" viewBox="0 0 900.000000 900.000000"><g fill="#fff"><path d="M6115 8654 c-33 -15 -62 -30 -65 -35 -8 -12 -88 -39 -116 -39 -13 0 -43 -13 -66 -30 -22 -16 -46 -30 -53 -30 -7 0 -25 -12 -41 -26 -16 -14 -46 -34 -66 -44 -44 -24 -53 -36 -53 -75 0 -25 -7 -33 -50 -56 -42 -22 -50 -31 -52 -57 0 -17 -11 -44 -23 -60 -20 -27 -22 -41 -22 -188 0 -230 -1 -222 26 -245 13 -12 27 -31 30 -44 5 -21 103 -113 156 -146 47 -30 195 -89 235 -95 22 -4 59 -12 83 -20 94 -31 306 -8 466 50 117 43 301 162 381 248 53 57 95 114 95 129 0 7 9 22 19 33 11 12 24 46 30 76 32 161 33 168 23 226 -25 142 -28 148 -137 257 -76 76 -139 117 -240 159 l-80 33 -210 2 c-207 3 -211 2 -270 -23z" transform="matrix(.1 0 0 -.1 0 900)"/><path d="m4046 8239-26-21 2-536c3-537 3-537 26-575 12-21 22-47 22-57 0-10 9-35 21-54 19-33 21-53 25-408 2-204 7-380 10-390 7-24 34-23 75 5 36 24 332 172 803 401l280 136 26-25c16-16 38-25 57-25 17 0 35-6 41-13 8-9 9-288 4-976-4-530-4-968 0-974 9-15 55 7 81 40 11 14 33 33 49 43 32 19 117 92 213 181 33 31 89 83 125 114 91 82 350 338 350 348 0 5 15 23 33 40 48 49 131 139 242 267 55 63 115 129 133 147 41 42 176 195 267 303 39 45 99 115 135 154 36 39 80 90 99 114 18 24 42 53 52 65 73 83 132 153 184 220 33 42 99 125 147 185 130 159 118 182-82 147-52-9-125-23-161-31-111-26-578-9-662 25-16 6-72 11-126 11-58 0-118 6-147 15-27 8-74 15-104 15-30 1-66 7-80 15-14 8-47 14-73 15-26 0-76 6-110 14-34 8-89 20-122 26-33 7-77 21-97 31-21 11-50 19-65 19-15 0-55 12-88 26-33 14-91 33-128 44-38 10-76 24-85 32-9 8-37 20-61 27-42 12-115 51-364 194-108 62-223 138-307 202-30 23-83 61-118 84-67 45-250 209-367 329-39 40-78 72-87 72-8 0-27-9-42-21zM2505 6305c-22-8-57-15-78-15-44 0-66-10-101-45-13-13-37-27-53-31-15-4-39-15-53-24-14-10-34-19-45-21-11-2-24-14-30-26-5-13-30-33-55-46-45-23-50-30-90-120-19-40-21-62-18-146 3-87 6-103 26-123 12-14 22-32 22-42 0-52 128-207 215-261 17-10 66-42 110-70 80-51 204-109 260-121 17-3 49-12 73-20 51-17 219-19 259-3 15 6 48 14 73 19 68 13 120 34 206 87 77 46 184 142 184 163 0 7 9 23 20 37 18 23 20 41 20 157 0 96-4 138-15 156-15 27-21 40-37 83-15 38-145 165-214 208-30 19-84 53-120 77-36 23-71 42-78 42-7 0-44 16-83 35-39 19-84 35-100 35-15 0-46 7-68 15-22 8-74 14-115 14-41 0-93-6-115-14z" transform="matrix(.1 0 0 -.1 0 900)"/><path d="M4838 5826c-10-7-21-27-24-44-5-24-20-38-78-73-39-23-75-48-81-56-5-7-32-28-59-46-36-23-52-41-58-64-6-21-19-38-38-48-16-8-46-26-66-40-20-14-43-25-50-25-7 0-27-13-44-30-17-16-39-30-49-30-10 0-21-6-24-13-2-6-22-18-43-26-22-8-52-27-68-42-17-16-36-29-44-29-8 0-32-16-53-35-22-19-43-35-49-35-5 0-20-10-33-22-13-13-36-31-53-40-16-9-54-35-85-58-41-30-71-43-113-50-37-6-68-18-88-35-17-14-44-29-60-32-15-3-31-10-34-14-9-15-74-39-106-39-18 0-45-12-69-32-35-28-47-32-93-30-44 2-60-3-97-28-32-21-56-30-87-30-41 0-114-29-127-50-3-5-26-10-51-10-50 0-102-18-123-43-9-11-29-17-57-17-24 0-88-12-141-26-54-15-125-30-158-35-33-4-76-12-95-18-19-6-55-11-80-11-25 0-78-7-117-15-40-8-106-22-145-30-40-8-111-15-158-15-47 0-112-7-143-15-32-8-72-15-90-15-18 0-54-7-81-15-39-12-116-15-383-15-211 0-341-4-354-10-42-23-23-47 104-131 67-45 149-103 182-129 33-26 86-64 118-84 31-21 70-53 85-71 15-18 50-50 77-70 104-79 211-177 473-434 111-110 202-204 202-210 0-5 35-46 77-89 165-168 203-211 203-226 0-9 20-36 45-59 25-24 45-52 45-62 0-9 20-35 44-56 24-21 46-49 50-63 3-13 21-35 40-50 19-14 40-42 47-63 12-38 72-137 88-147 5-3 12-18 15-32 4-15 20-41 36-58 17-17 48-66 70-109 22-43 49-90 60-104 11-14 20-34 20-44 0-10 5-21 11-25 6-3 19-25 28-48 10-23 26-47 35-55 9-7 16-22 16-34 0-11 16-37 36-59 20-22 42-57 50-77 8-20 21-49 29-66 8-16 19-49 25-71 6-23 17-44 25-47 7-3 17-23 21-44 4-21 15-49 25-62 11-13 19-29 19-35 0-7 11-27 25-46 14-19 25-44 25-57 0-41 80-61 100-24 16 30 12 144-10 276-11 66-20 148-20 182 0 36-8 84-19 115-11 29-23 82-26 117-4 35-16 82-26 105-10 23-19 61-19 86 0 29-9 60-25 89-14 24-25 59-25 80 0 20-9 50-20 66-11 17-20 46-20 66 0 22-10 51-25 73-14 20-25 45-25 56 0 10-11 40-25 66-14 26-25 55-25 64 0 10-9 29-20 43-11 14-20 31-20 38 0 17-59 138-82 168-10 13-18 31-18 41 0 10-9 29-21 43-11 15-23 42-26 60-7 45 8 50 115 36 88-12 763-6 1085 9l159 7 65 69c35 38 69 78 74 90 5 12 25 41 44 66 19 25 41 59 49 76 8 17 19 35 25 38 6 4 11 15 11 25 0 10 11 28 25 41 14 13 25 31 25 41 0 9 7 23 16 30 9 8 25 32 35 55 9 23 22 45 28 48 6 4 11 17 11 30 0 12 11 37 25 56 14 19 25 44 25 55 0 12 9 30 20 40 11 10 20 28 20 40 0 12 10 42 23 66 13 24 27 59 30 78 4 19 14 42 23 52 8 9 19 42 23 71 4 30 17 70 29 90 13 22 22 52 22 77 0 23 7 53 16 66 10 15 19 62 24 122 5 54 16 118 26 143 16 40 19 86 22 413l3 368-27 92c-34 119-42 129-76 103zM5960 4314c-25-7-69-15-98-17-43-3-59-9-85-35-18-18-39-32-46-32-21 0-122-66-173-114l-48-44 0-105c0-103 0-105 34-147 34-43 128-109 156-110 8 0 24-7 34-15 11-8 29-15 41-15 11 0 46-9 78-20 46-16 82-20 196-20 93 0 155 5 183 14 24 8 61 17 83 21 69 12 268 129 283 167 2 5 15 22 28 37 21 26 24 38 24 118l0 89-55 56c-70 71-180 132-276 153-183 39-280 45-359 19z" transform="matrix(.1 0 0 -.1 0 900)"/><path d="M7532 3790 c-29 -28 -57 -50 -63 -50 -5 0 -23 -10 -39 -21 -16 -12 -52 -25 -80 -30 -29 -4 -66 -19 -83 -32 -18 -13 -53 -33 -78 -44 -26 -12 -50 -26 -53 -32 -4 -6 -31 -11 -59 -11 -43 0 -59 -5 -88 -29 -20 -17 -56 -38 -80 -47 -24 -9 -51 -23 -60 -31 -8 -7 -36 -13 -60 -13 -33 0 -51 -6 -70 -24 -40 -37 -68 -48 -105 -42 -39 8 -97 -13 -112 -41 -8 -14 -23 -18 -64 -19 -73 -1 -71 0 -113 -34 -32 -26 -46 -30 -89 -28 -28 1 -98 -10 -156 -25 -58 -14 -134 -31 -170 -37 -36 -6 -96 -20 -135 -30 -38 -11 -104 -25 -145 -31 -41 -7 -99 -21 -129 -31 -30 -10 -73 -18 -96 -18 -24 0 -60 -6 -81 -13 -22 -8 -93 -17 -159 -20 -67 -4 -152 -13 -190 -21 -151 -31 -185 -35 -330 -41 -82 -4 -179 -13 -215 -20 -137 -29 -215 -35 -530 -40 -178 -3 -328 -9 -333 -14 -5 -5 -7 -56 -5 -114 2 -80 7 -109 20 -123 31 -36 60 -136 67 -236 5 -68 12 -102 23 -115 9 -10 20 -31 24 -48 4 -16 15 -47 25 -67 18 -34 19 -67 19 -423 0 -366 -1 -388 -20 -425 -11 -22 -20 -48 -20 -58 0 -11 -10 -32 -22 -48 -20 -25 -24 -43 -28 -159 -4 -96 -10 -138 -23 -162 -9 -18 -17 -39 -17 -48 0 -9 -11 -31 -24 -48 -13 -18 -28 -50 -32 -72 -3 -22 -15 -57 -26 -78 -11 -22 -17 -45 -14 -53 3 -8 -7 -29 -23 -47 -39 -45 -73 -115 -66 -137 3 -10 0 -24 -7 -31 -32 -33 -59 -81 -54 -94 7 -19 56 -19 93 -1 15 8 55 22 88 32 33 9 71 22 85 29 14 7 50 20 80 30 30 10 64 24 75 31 11 8 26 14 34 14 8 0 43 13 78 30 34 16 68 30 74 30 30 0 665 331 797 416 332 212 699 460 766 518 44 37 100 82 125 99 25 17 71 51 101 77 30 25 71 57 90 71 19 13 60 45 90 72 30 26 95 83 144 125 48 42 112 100 141 127 28 28 90 84 136 125 70 63 197 190 359 360 71 74 216 234 240 265 25 32 156 197 245 307 25 31 45 60 45 66 0 5 7 16 16 23 17 14 97 130 126 181 9 16 23 37 31 46 8 9 18 27 21 38 4 12 15 29 26 39 11 10 20 26 20 36 0 10 11 35 25 55 14 20 25 42 25 49 0 6 9 20 20 30 11 10 20 30 20 44 0 14 9 41 21 60 22 37 22 74 -1 78 -8 2 -39 -20 -68 -47z" transform="matrix(.1 0 0 -.1 0 900)"/></g></svg>